<svg width="26" height="26" viewBox="0 0 26 26" fill="none" xmlns="http://www.w3.org/2000/svg">
<path d="M6.26375 22.5138V8.7325C6.26375 8.045 6.51375 7.46167 7.01375 6.9825C7.51375 6.50333 8.1075 6.26375 8.795 6.26375H22.5138C23.2013 6.26375 23.79 6.50833 24.28 6.9975C24.77 7.48667 25.0146 8.07542 25.0138 8.76375V18.7638L18.7638 25.0138H8.76375C8.07625 25.0138 7.48792 24.7692 6.99875 24.28C6.50958 23.7908 6.26458 23.2021 6.26375 22.5138ZM0.045 5.32625C-0.08 4.63875 0.0554164 4.01917 0.45125 3.4675C0.847083 2.91583 1.38875 2.57708 2.07625 2.45125L15.6388 0.045C16.3263 -0.08 16.9462 0.0554164 17.4987 0.45125C18.0512 0.847083 18.3896 1.38875 18.5137 2.07625L18.8262 3.76375H16.2638L16.045 2.51375L2.51375 4.92L3.76375 11.9825V20.7012C3.43042 20.5137 3.14417 20.2638 2.905 19.9513C2.66583 19.6388 2.51458 19.2846 2.45125 18.8888L0.045 5.32625ZM8.76375 8.76375V22.5138H17.5138V17.5138H22.5138V8.76375H8.76375Z" fill="#DBDBDB"/>
</svg>
