<svg width="28" height="27" viewBox="0 0 28 27" fill="none" xmlns="http://www.w3.org/2000/svg">
<path d="M15.3274 4.9108C15.3274 4.9108 8.42029 4.0571 5.20912 6.43547C3.25173 7.88522 2.15989 9.09018 1.46676 11.4253C0.708096 13.9812 0.830066 15.9062 2.15979 18.217C3.39104 20.3567 7.14961 22.098 7.14961 22.098M15.3274 26.5334C15.3274 26.5334 14.2185 23.7612 14.0799 22.9296C13.9413 22.098 16.5833 22.7505 17.9608 22.098C20.5944 20.8505 21.5646 20.2961 22.8121 19.4645C24.0595 18.6328 24.964 17.1392 24.8912 14.4746C24.8575 13.2408 24.0595 11.4253 24.0595 11.4253" stroke="#DBDBDB" stroke-width="1.5"/>
<circle cx="22.119" cy="5.88097" r="4.63097" stroke="#DBDBDB" stroke-width="1.5"/>
<path d="M7.56537 12.3955H19.3469" stroke="#DBDBDB" stroke-width="1.5" stroke-linecap="round"/>
<path d="M7.70398 16.5537H15.0501" stroke="#DBDBDB" stroke-width="1.5" stroke-linecap="round"/>
</svg>
