<svg width="26" height="25" viewBox="0 0 26 25" fill="none" xmlns="http://www.w3.org/2000/svg">
<path d="M9.125 25L8.625 21C8.35417 20.8958 8.09917 20.7708 7.86 20.625C7.62083 20.4792 7.38625 20.3229 7.15625 20.1562L3.4375 21.7188L0 15.7812L3.21875 13.3438C3.19792 13.1979 3.1875 13.0575 3.1875 12.9225V12.0788C3.1875 11.9429 3.19792 11.8021 3.21875 11.6562L0 9.21875L3.4375 3.28125L7.15625 4.84375C7.38542 4.67708 7.625 4.52083 7.875 4.375C8.125 4.22917 8.375 4.10417 8.625 4L9.125 0H16L16.5 4C16.7708 4.10417 17.0262 4.22917 17.2663 4.375C17.5063 4.52083 17.7404 4.67708 17.9688 4.84375L21.6875 3.28125L25.125 9.21875L21.9062 11.6562C21.9271 11.8021 21.9375 11.9429 21.9375 12.0788V12.9212C21.9375 13.0571 21.9167 13.1979 21.875 13.3438L25.0937 15.7812L21.6562 21.7188L17.9688 20.1562C17.7396 20.3229 17.5 20.4792 17.25 20.625C17 20.7708 16.75 20.8958 16.5 21L16 25H9.125ZM11.3125 22.5H13.7813L14.2188 19.1875C14.8646 19.0208 15.4637 18.7763 16.0163 18.4538C16.5688 18.1313 17.0738 17.7404 17.5312 17.2812L20.625 18.5625L21.8437 16.4375L19.1562 14.4062C19.2604 14.1146 19.3333 13.8075 19.375 13.485C19.4167 13.1625 19.4375 12.8342 19.4375 12.5C19.4375 12.1667 19.4167 11.8387 19.375 11.5163C19.3333 11.1938 19.2604 10.8863 19.1562 10.5938L21.8437 8.5625L20.625 6.4375L17.5312 7.75C17.0729 7.27083 16.5679 6.87 16.0163 6.5475C15.4646 6.225 14.8654 5.98 14.2188 5.8125L13.8125 2.5H11.3438L10.9062 5.8125C10.2604 5.97917 9.66167 6.22417 9.11 6.5475C8.55833 6.87083 8.05292 7.26125 7.59375 7.71875L4.5 6.4375L3.28125 8.5625L5.96875 10.5625C5.86458 10.875 5.79167 11.1875 5.75 11.5C5.70833 11.8125 5.6875 12.1458 5.6875 12.5C5.6875 12.8333 5.70833 13.1562 5.75 13.4688C5.79167 13.7812 5.86458 14.0938 5.96875 14.4062L3.28125 16.4375L4.5 18.5625L7.59375 17.25C8.05208 17.7292 8.5575 18.1304 9.11 18.4538C9.6625 18.7771 10.2613 19.0217 10.9062 19.1875L11.3125 22.5ZM12.625 16.875C13.8333 16.875 14.8646 16.4479 15.7188 15.5938C16.5729 14.7396 17 13.7083 17 12.5C17 11.2917 16.5729 10.2604 15.7188 9.40625C14.8646 8.55208 13.8333 8.125 12.625 8.125C11.3958 8.125 10.3592 8.55208 9.515 9.40625C8.67083 10.2604 8.24917 11.2917 8.25 12.5C8.25 13.7083 8.67208 14.7396 9.51625 15.5938C10.3604 16.4479 11.3967 16.875 12.625 16.875Z" fill="#DBDBDB"/>
</svg>
