<svg width="20" height="20" viewBox="0 0 20 20" fill="none" xmlns="http://www.w3.org/2000/svg">
<path d="M10 16.6666C9.54171 16.6666 9.14949 16.5035 8.82337 16.1774C8.49726 15.8513 8.33393 15.4588 8.33337 14.9999C8.33337 14.5416 8.49671 14.1494 8.82337 13.8233C9.15004 13.4971 9.54226 13.3338 10 13.3333C10.4584 13.3333 10.8509 13.4966 11.1775 13.8233C11.5042 14.1499 11.6673 14.5421 11.6667 14.9999C11.6667 15.4583 11.5037 15.8508 11.1775 16.1774C10.8514 16.5041 10.4589 16.6671 10 16.6666ZM10 11.6666C9.54171 11.6666 9.14949 11.5035 8.82337 11.1774C8.49726 10.8513 8.33393 10.4588 8.33337 9.99992C8.33337 9.54159 8.49671 9.14936 8.82337 8.82325C9.15004 8.49714 9.54226 8.33381 10 8.33325C10.4584 8.33325 10.8509 8.49659 11.1775 8.82325C11.5042 9.14992 11.6673 9.54214 11.6667 9.99992C11.6667 10.4583 11.5037 10.8508 11.1775 11.1774C10.8514 11.5041 10.4589 11.6671 10 11.6666ZM10 6.66659C9.54171 6.66659 9.14949 6.50353 8.82337 6.17742C8.49726 5.85131 8.33393 5.45881 8.33337 4.99992C8.33337 4.54159 8.49671 4.14936 8.82337 3.82325C9.15004 3.49714 9.54226 3.33381 10 3.33325C10.4584 3.33325 10.8509 3.49659 11.1775 3.82325C11.5042 4.14992 11.6673 4.54214 11.6667 4.99992C11.6667 5.45825 11.5037 5.85075 11.1775 6.17742C10.8514 6.50409 10.4589 6.66714 10 6.66659Z" fill="#666666"/>
</svg>
